# xmcd CD database file
#
# Track frame offsets:
#	150
#	8818
#	27379
#	40390
#	52662
#	65542
#	77771
#	93119
#	104553
#	115791
#	125261
#	141125
#	152748
#	164322
#	176571
#	188441
#	200745
#
# Disc length: 2790 seconds
#
# Revision: 0
# Processed by: cddbd v1.5.2PL0 Copyright (c) Steve Scherf et al.
# Submitted via: CDex 1.51
#
DISCID=d80ae411
DTITLE=Brian Cool - Irish Country Music
DYEAR=2004
DGENRE=Country
TTITLE0=Ireland Swings
TTITLE1=I Take You Home Again Kathleen
TTITLE2=Just Out Of Reach
TTITLE3=Mother Machree
TTITLE4=I'm In Love Again
TTITLE5=Cattle Call
TTITLE6=I Ain't Crying Mister
TTITLE7=Believe Me If All Those Endearing Young Charms
TTITLE8=Walk On By
TTITLE9=Star Of The County Down
TTITLE10=Banks Of My Own Lovely Lee
TTITLE11=I'll Never Take You Back
TTITLE12=Rose Of Tralee
TTITLE13=Blazing Star Of Athenry
TTITLE14=Life Turned Her That Way
TTITLE15=Whathever Makes You Thing
TTITLE16=Mary Clare Melvina
EXTD=YEAR: 2004
EXTT0=
EXTT1=
EXTT2=
EXTT3=
EXTT4=
EXTT5=
EXTT6=
EXTT7=
EXTT8=
EXTT9=
EXTT10=
EXTT11=
EXTT12=
EXTT13=
EXTT14=
EXTT15=
EXTT16=
PLAYORDER=
